<?xml version="1.0" encoding="UTF-8"?>
<svg xmlns="http://www.w3.org/2000/svg" xmlns:xlink="http://www.w3.org/1999/xlink" width="708.84pt" height="862.85pt" viewBox="0 0 708.84 862.85" version="1.1">
<defs>
<clipPath id="clip1">
  <path d="M 0 0 L 708.839844 0 L 708.839844 709 L 0 709 Z M 0 0 "/>
</clipPath>
<clipPath id="clip2">
  <path d="M 153 845 L 162 845 L 162 862.851563 L 153 862.851563 Z M 153 845 "/>
</clipPath>
<clipPath id="clip3">
  <path d="M 687 808 L 708.839844 808 L 708.839844 861 L 687 861 Z M 687 808 "/>
</clipPath>
</defs>
<g id="surface1">
<g clip-path="url(#clip1)" clip-rule="nonzero">
<path style=" stroke:none;fill-rule:evenodd;fill:rgb(7.835388%,32.93457%,1.177979%);fill-opacity:1;" d="M 608.367188 258.734375 C 608.835938 257.367188 609.308594 256.003906 609.777344 254.640625 C 607.902344 252.175781 606.378906 249.316406 604.101563 247.308594 C 573.117188 219.960938 541.496094 193.304688 511.109375 165.316406 C 480.660156 137.285156 451.933594 107.378906 421.449219 79.382813 C 399.84375 59.539063 377.597656 59.648438 357.433594 78.816406 C 349.136719 86.703125 343.136719 97.113281 336.554688 106.691406 C 313.453125 140.316406 305.972656 182.878906 271.015625 210.375 C 246.9375 229.3125 228.847656 255.757813 207.476563 278.269531 C 186.03125 300.863281 190.8125 320.273438 220.355469 331.015625 C 245.210938 340.058594 270.414063 337.351563 295.46875 334.421875 C 309.949219 332.722656 316.363281 320.730469 312.519531 307.566406 C 307.429688 290.132813 288.265625 271.609375 274.058594 271.363281 C 253.292969 271.003906 244.910156 286.074219 237.496094 302 C 237.085938 302.882813 237.035156 304.046875 236.417969 304.695313 C 232.429688 308.90625 227.945313 316.695313 224.359375 316.320313 C 218.53125 315.703125 211.066406 310.808594 208.515625 305.640625 C 206.707031 301.972656 210.347656 293.332031 214.167969 289.566406 C 235.773438 268.253906 258.171875 247.742188 281.140625 226.171875 C 291.3125 237.792969 293.949219 227.734375 299.171875 216.816406 C 318.234375 176.90625 337.84375 137.214844 358.605469 98.167969 C 367.847656 80.789063 385.835938 77.386719 402.472656 88.328125 C 411.679688 94.386719 419.992188 102.171875 427.648438 110.183594 C 461.59375 145.707031 494.085938 182.707031 529.339844 216.855469 C 545.421875 232.433594 566.3125 243.296875 585.847656 254.898438 C 591.960938 258.527344 600.785156 257.582031 608.367188 258.734375 M 259.277344 105.65625 C 256.957031 104.847656 254.632813 104.039063 252.308594 103.230469 C 249.445313 106.796875 246.558594 110.347656 243.71875 113.933594 C 233.164063 127.273438 223.886719 141.914063 211.84375 153.734375 C 171.855469 192.976563 131.503906 231.890625 90.101563 269.625 C 49.179688 306.925781 68.628906 355.574219 101.679688 374.011719 C 114.867188 381.363281 129.335938 386.644531 141.84375 394.941406 C 163.074219 409.03125 194.09375 409.066406 204.910156 438.253906 C 205.054688 438.644531 205.59375 438.953125 206.011719 439.191406 C 236.777344 456.441406 259.085938 483.078125 283.339844 507.761719 C 300.832031 525.5625 318.832031 522.085938 328.460938 499.503906 C 340.667969 470.878906 341.328125 440.527344 334.980469 410.523438 C 333.617188 404.089844 325.328125 396.714844 318.621094 394.371094 C 307.808594 390.59375 284.972656 406.460938 277.40625 420.292969 C 270.453125 433.007813 272.054688 450.519531 283.304688 460.652344 C 290.65625 467.277344 300.078125 472.070313 309.28125 476.027344 C 318.753906 480.101563 319.449219 485.308594 314.640625 493.058594 C 307.933594 503.859375 300.316406 504.199219 289.859375 493.257813 C 274.074219 476.742188 259.769531 458.625 242.757813 443.53125 C 233.570313 435.382813 224.550781 430.636719 237.09375 417.363281 C 231.472656 414.535156 227.398438 412.144531 223.070313 410.359375 C 203.703125 402.359375 183.71875 395.636719 164.992188 386.363281 C 139.777344 373.878906 115.171875 360.054688 91.003906 345.625 C 80.449219 339.324219 79.085938 327.789063 84.085938 317.046875 C 87.699219 309.285156 92.429688 301.375 98.597656 295.589844 C 134.125 262.253906 171.359375 230.660156 205.671875 196.148438 C 223.605469 178.105469 237.574219 155.839844 251.597656 134.351563 C 256.738281 126.46875 256.863281 115.316406 259.277344 105.65625 M 453.257813 605.5625 C 455.082031 605.96875 456.90625 606.375 458.726563 606.777344 C 461.230469 604.03125 463.871094 601.394531 466.21875 598.511719 C 481.269531 580.007813 494.964844 560.191406 511.539063 543.171875 C 546.175781 507.597656 581.03125 472.027344 618.203125 439.179688 C 658.914063 403.199219 643.25 353.546875 606.195313 331.921875 C 571.1875 311.5 529.007813 303.007813 502.027344 268.886719 C 496.53125 261.933594 486.535156 258.734375 479.855469 252.484375 C 463.910156 237.574219 448.488281 222.085938 433.257813 206.433594 C 412.988281 185.605469 393.238281 185.527344 382.757813 208.664063 C 369.289063 238.394531 368.785156 270.105469 376.582031 301.582031 C 379.742188 314.351563 389.671875 317.652344 401.894531 314.265625 C 419.640625 309.351563 437.820313 289.023438 437.714844 272.164063 C 437.597656 253.046875 425.378906 242.429688 408.59375 236.09375 C 406.773438 235.40625 404.726563 234.886719 403.296875 233.6875 C 399.5625 230.554688 392.65625 226.210938 393.238281 223.921875 C 394.644531 218.351563 398.636719 212.117188 403.441406 209.203125 C 406.386719 207.421875 413.113281 210.574219 417.464844 212.824219 C 420.722656 214.515625 422.816406 218.386719 425.570313 221.140625 C 442.667969 238.214844 459.863281 255.195313 476.851563 272.378906 C 478.671875 274.222656 481.085938 278.164063 480.335938 279.464844 C 471.976563 293.886719 483.539063 295.359375 492.367188 299.359375 C 529.121094 316 566.300781 331.832031 602.230469 350.109375 C 631.417969 364.953125 634.117188 383.410156 614.011719 409.117188 C 611.632813 412.164063 608.675781 414.773438 605.84375 417.4375 C 568.992188 452.160156 530.484375 485.320313 495.929688 522.195313 C 478.464844 540.84375 467.789063 565.984375 454.894531 588.675781 C 452.34375 593.171875 453.703125 599.878906 453.257813 605.5625 M 452.171875 368.597656 C 438.683594 370.019531 426.203125 369.851563 414.699219 373.128906 C 408.292969 374.949219 400.902344 381.492188 398.53125 387.667969 C 393.1875 401.59375 408.160156 425.511719 425.242188 433.765625 C 439.765625 440.78125 456.347656 436.769531 466.640625 422.40625 C 471.65625 415.398438 474.921875 407.042969 478.351563 399.027344 C 481.601563 391.433594 485.894531 389.746094 493.164063 393.949219 C 504.40625 400.441406 505.292969 408.761719 495.335938 418.695313 C 475.539063 438.449219 449.085938 451.796875 437.242188 479.328125 C 436.414063 481.25 430.648438 483.210938 428.851563 482.195313 C 417.035156 475.519531 415.289063 483.816406 411.589844 491.949219 C 393.269531 532.214844 375.121094 572.59375 355.371094 612.160156 C 347.078125 628.785156 333.234375 633.625 317.175781 624.738281 C 301.78125 616.222656 287.644531 604.242188 275.429688 591.425781 C 247.1875 561.796875 221.546875 529.648438 192.730469 500.628906 C 170.882813 478.632813 146.988281 457.816406 115.746094 449.503906 C 110.769531 448.175781 104.488281 451.734375 98.8125 453.035156 C 101.628906 457.113281 103.738281 462.035156 107.40625 465.097656 C 115.621094 471.964844 124.441406 478.160156 133.320313 484.183594 C 171.964844 510.398438 205.300781 542 234.167969 578.832031 C 248.496094 597.109375 265.074219 613.941406 282.371094 629.496094 C 307.277344 651.894531 339.734375 651.929688 361.613281 630.285156 C 369.738281 622.242188 376.28125 611.980469 381.414063 601.667969 C 393.796875 576.804688 404.648438 551.171875 416.691406 526.128906 C 421.175781 516.808594 420.695313 501.53125 438.214844 504.953125 C 439.058594 505.117188 440.40625 503.214844 441.363281 502.140625 C 463.644531 477.128906 485.984375 452.175781 508.140625 427.058594 C 526.207031 406.570313 520.746094 384.691406 494.070313 375.890625 C 480.414063 371.382813 465.46875 370.785156 452.171875 368.597656 M 417.214844 350.132813 C 441.320313 350.132813 462.726563 348.351563 483.699219 350.609375 C 507.265625 353.148438 530.710938 358.304688 553.703125 364.289063 C 569.65625 368.441406 574.253906 380.675781 563.800781 393.339844 C 549.96875 410.105469 533.777344 425.128906 517.410156 439.5625 C 481.769531 471 453.59375 506.875 436.058594 551.96875 C 414.515625 607.359375 379.023438 653.753906 333.671875 692.378906 C 321.757813 702.527344 316.601563 701.929688 302.871094 688.15625 C 269.503906 654.691406 236.300781 621.0625 202.921875 587.601563 C 143.054688 527.589844 83.15625 467.601563 23.15625 407.722656 C 10.660156 395.25 2.210938 380.820313 0.0898438 363.199219 C -0.382813 359.246094 1.128906 355.054688 1.726563 350.976563 C 5.867188 352.640625 11.097656 353.230469 13.980469 356.144531 C 47.765625 390.265625 84.648438 420.367188 126.613281 443.917969 C 143.171875 453.210938 159.777344 462.523438 176.914063 470.660156 C 204.230469 483.632813 226.960938 501.777344 247.449219 524.089844 C 264.75 542.925781 283.710938 561.007813 304.617188 575.574219 C 327.863281 591.769531 356.226563 582.320313 363.570313 555.199219 C 373.183594 519.707031 377.691406 482.824219 384.179688 446.503906 C 384.664063 443.777344 384.296875 440.148438 382.808594 437.964844 C 378.15625 431.121094 372.777344 424.765625 367.679688 418.222656 C 365.996094 424.65625 363.636719 431.007813 362.746094 437.550781 C 357.886719 473.171875 355.3125 509.226563 348.160156 544.359375 C 342.492188 572.210938 326.152344 576.597656 305.179688 557.371094 C 289.113281 542.640625 275.753906 524.976563 260.976563 508.808594 C 231.035156 476.050781 197.191406 449.816406 154.730469 433.601563 C 99.675781 412.578125 54.027344 376.828125 15.082031 332.519531 C 7.125 323.472656 6.3125 316.199219 15.210938 307.472656 C 70.183594 253.542969 125.070313 199.523438 179.78125 145.328125 C 218.894531 106.578125 257.757813 67.570313 296.597656 28.546875 C 310.972656 14.105469 326.386719 1.65625 347.714844 0.0507813 C 352.152344 -0.28125 356.730469 1.277344 361.246094 1.960938 C 359.554688 6.039063 358.683594 10.761719 356.050781 14.09375 C 329.503906 47.683594 301.835938 80.421875 276.277344 114.738281 C 264.15625 131.011719 254.371094 149.496094 246.234375 168.160156 C 228.269531 209.355469 196.761719 238.527344 164.320313 267.65625 C 152.277344 278.46875 142.28125 292.46875 134.273438 306.664063 C 121.625 329.085938 128.640625 350.742188 152.207031 361.445313 C 189.308594 378.300781 229.132813 381.996094 269.453125 381.136719 C 272.246094 381.074219 275.765625 380.253906 277.640625 378.4375 C 282.601563 373.625 286.847656 368.066406 291.375 362.808594 C 285.628906 361.554688 279.933594 359.878906 274.117188 359.117188 C 235.605469 354.054688 196.804688 350.632813 158.648438 343.667969 C 138.789063 340.039063 135.097656 325.636719 148.160156 310.09375 C 157.804688 298.621094 169.167969 288.277344 181.011719 279.023438 C 232.058594 239.132813 264.777344 186.84375 290.199219 127.980469 C 309.769531 82.667969 343.773438 47.015625 380.8125 14.628906 C 387.960938 8.382813 394.511719 7.273438 401.335938 13.957031 C 422.191406 34.382813 443.03125 54.824219 463.558594 75.574219 C 537.25 150.0625 611.316406 224.183594 683.898438 299.734375 C 695.695313 312.023438 700.976563 330.71875 708.53125 346.796875 C 709.738281 349.359375 707.039063 353.757813 706.144531 357.304688 C 702.78125 356.242188 698.386719 356.191406 696.21875 353.964844 C 645.585938 302.011719 584.695313 265.304688 521.191406 231.378906 C 496.988281 218.449219 477.859375 196.003906 456.523438 177.765625 C 439.984375 163.628906 424.808594 147.507813 406.871094 135.488281 C 383.652344 119.933594 358.988281 126.953125 347.566406 152.945313 C 331.074219 190.480469 325.203125 230.703125 328.347656 271.640625 C 328.929688 279.203125 336.222656 286.246094 340.417969 293.527344 C 341.929688 293.3125 343.445313 293.09375 344.960938 292.875 C 346.144531 289.234375 348.421875 285.566406 348.34375 281.949219 C 347.507813 242.769531 350.367188 204.179688 361.410156 166.21875 C 368.976563 140.21875 382.714844 134.296875 403.402344 152.171875 C 417.320313 164.195313 429.621094 178.316406 441.472656 192.480469 C 472.722656 229.851563 510.101563 257.792969 555.65625 276.292969 C 609.832031 298.292969 654.078125 335.089844 693.542969 377.785156 C 703.320313 388.367188 697.308594 396.671875 689.789063 404.289063 C 660 434.503906 629.925781 464.433594 600.027344 494.539063 C 536.84375 558.1875 473.742188 621.910156 410.527344 685.53125 C 394.113281 702.050781 375.238281 712.152344 347.988281 707.453125 C 351.320313 702.226563 352.914063 698.324219 355.675781 695.597656 C 405.121094 646.761719 444.125 590.796875 472.667969 527.347656 C 487 495.492188 513.191406 473.109375 537.339844 448.914063 C 552.890625 433.335938 567.316406 415.6875 578.160156 396.636719 C 588.597656 378.296875 576.992188 351.808594 557.257813 344.03125 C 521.476563 329.925781 483.957031 324.082031 445.511719 325.773438 C 432.621094 326.34375 423.363281 333.273438 417.214844 350.132813 "/>
</g>
<path style=" stroke:none;fill-rule:evenodd;fill:rgb(7.835388%,32.93457%,1.177979%);fill-opacity:1;" d="M 463.429688 390.964844 C 454.113281 413.679688 431.546875 418.738281 416.617188 402.863281 C 411.757813 397.695313 411.5 391.960938 419.015625 391.324219 C 433.523438 390.101563 448.207031 390.964844 463.429688 390.964844 "/>
<path style=" stroke:none;fill-rule:evenodd;fill:rgb(7.835388%,32.93457%,1.177979%);fill-opacity:1;" d="M 390.035156 247.691406 C 405.132813 250.355469 412.785156 259.003906 413.269531 269.496094 C 413.652344 277.804688 408.460938 287.355469 403.324219 294.65625 C 398.347656 301.730469 391.101563 299.320313 390.355469 290.816406 C 389.160156 277.171875 390.035156 263.34375 390.035156 247.691406 "/>
<path style=" stroke:none;fill-rule:evenodd;fill:rgb(7.835388%,32.93457%,1.177979%);fill-opacity:1;" d="M 320.355469 437.964844 C 320.355469 438.941406 320.535156 439.957031 320.324219 440.882813 C 318.835938 447.410156 317.265625 453.910156 315.71875 460.421875 C 309.851563 455.164063 302.710938 450.730469 298.574219 444.351563 C 295.898438 440.230469 295.496094 432.058594 297.871094 427.835938 C 301.535156 421.324219 308.449219 416.640625 313.984375 411.179688 C 316.054688 417.183594 318.398438 423.109375 320.070313 429.222656 C 320.8125 431.945313 320.195313 435.039063 320.195313 437.964844 "/>
<path style=" stroke:none;fill-rule:evenodd;fill:rgb(7.835388%,32.93457%,1.177979%);fill-opacity:1;" d="M 246.167969 317.398438 C 254.578125 293.625 281.046875 286.980469 296.046875 303.625 C 300.527344 308.597656 303.382813 315.878906 294.980469 316.863281 C 279.066406 318.726563 262.78125 317.398438 246.167969 317.398438 "/>
<path style=" stroke:none;fill-rule:nonzero;fill:rgb(0%,0%,0%);fill-opacity:1;" d="M 103.6875 729.3125 L 119.207031 729.3125 L 119.207031 734.375 L 109.722656 734.375 L 109.722656 750.652344 L 118.621094 750.652344 L 118.621094 755.777344 L 109.722656 755.777344 L 109.722656 780.835938 L 103.6875 780.835938 "/>
<path style=" stroke:none;fill-rule:nonzero;fill:rgb(0%,0%,0%);fill-opacity:1;" d="M 138.117188 749.421875 C 138.117188 746.300781 138.003906 744.417969 137.777344 743.773438 C 137.554688 743.132813 137.265625 742.566406 136.914063 742.074219 C 136.566406 741.585938 135.929688 741.34375 135.011719 741.34375 C 133.257813 741.34375 132.144531 742.078125 131.675781 743.554688 C 131.207031 745.027344 130.972656 747.054688 130.972656 749.628906 L 130.972656 755.015625 L 138.117188 755.015625 Z M 124.972656 750.535156 C 124.972656 744.992188 125.96875 741.140625 127.957031 738.976563 C 129.519531 737.257813 131.820313 736.394531 134.867188 736.394531 C 139.277344 736.394531 142.046875 738.300781 143.179688 742.105469 C 143.804688 744.253906 144.117188 747.152344 144.117188 750.800781 L 144.117188 759.085938 L 131.003906 759.085938 L 131.003906 767.835938 C 131.003906 771.644531 131.304688 774.015625 131.910156 774.949219 C 132.515625 775.890625 133.472656 776.359375 134.777344 776.359375 C 136.085938 776.359375 136.960938 775.808594 137.398438 774.71875 C 137.839844 773.625 138.066406 772.441406 138.085938 771.160156 C 138.105469 769.886719 138.117188 768.804688 138.117188 767.925781 L 138.117188 764.382813 L 144 764.382813 L 144 766.257813 C 144 770.921875 143.675781 774.191406 143.019531 776.0625 C 142.363281 777.9375 141.375 779.289063 140.046875 780.117188 C 138.722656 780.945313 137.078125 781.363281 135.113281 781.363281 C 133.152344 781.363281 131.582031 781.117188 130.402344 780.613281 C 129.21875 780.117188 128.285156 779.460938 127.59375 778.640625 C 126.898438 777.820313 126.289063 776.511719 125.761719 774.71875 C 125.234375 772.921875 124.972656 770.03125 124.972656 766.050781 "/>
<path style=" stroke:none;fill-rule:nonzero;fill:rgb(0%,0%,0%);fill-opacity:1;" d="M 164.671875 750.097656 C 164.671875 747.015625 164.410156 744.796875 163.894531 743.453125 C 163.375 742.105469 162.382813 741.433594 160.90625 741.433594 C 159.433594 741.433594 158.4375 742.109375 157.921875 743.464844 C 157.402344 744.824219 157.144531 747.085938 157.144531 750.242188 L 157.144531 767.984375 C 157.144531 772.277344 157.710938 774.875 158.84375 775.773438 C 159.3125 776.140625 159.976563 776.328125 160.835938 776.328125 C 161.691406 776.328125 162.394531 776.09375 162.941406 775.625 C 164.09375 774.648438 164.671875 772.015625 164.671875 767.722656 Z M 164.640625 728.753906 L 170.671875 728.753906 L 170.671875 780.835938 L 164.640625 780.835938 L 164.640625 777.148438 C 163.546875 779.859375 161.527344 781.214844 158.578125 781.214844 C 154.539063 781.214844 152.167969 778.554688 151.46875 773.222656 C 151.230469 771.449219 151.113281 769.300781 151.113281 766.785156 L 151.113281 750.183594 C 151.113281 744.894531 151.976563 741.160156 153.691406 738.976563 C 155.058594 737.253906 156.988281 736.394531 159.488281 736.394531 C 160.582031 736.394531 161.589844 736.71875 162.519531 737.363281 C 163.445313 738.007813 164.152344 738.835938 164.640625 739.851563 "/>
<path style=" stroke:none;fill-rule:nonzero;fill:rgb(0%,0%,0%);fill-opacity:1;" d="M 191.71875 749.421875 C 191.71875 746.300781 191.605469 744.417969 191.382813 743.773438 C 191.15625 743.132813 190.867188 742.566406 190.515625 742.074219 C 190.167969 741.585938 189.53125 741.34375 188.613281 741.34375 C 186.859375 741.34375 185.746094 742.078125 185.277344 743.554688 C 184.808594 745.027344 184.574219 747.054688 184.574219 749.628906 L 184.574219 755.015625 L 191.71875 755.015625 Z M 178.574219 750.535156 C 178.574219 744.992188 179.570313 741.140625 181.558594 738.976563 C 183.121094 737.257813 185.421875 736.394531 188.46875 736.394531 C 192.878906 736.394531 195.648438 738.300781 196.78125 742.105469 C 197.40625 744.253906 197.71875 747.152344 197.71875 750.800781 L 197.71875 759.085938 L 184.605469 759.085938 L 184.605469 767.835938 C 184.605469 771.644531 184.90625 774.015625 185.511719 774.949219 C 186.117188 775.890625 187.074219 776.359375 188.382813 776.359375 C 189.6875 776.359375 190.5625 775.808594 191 774.71875 C 191.441406 773.625 191.671875 772.441406 191.6875 771.160156 C 191.707031 769.886719 191.71875 768.804688 191.71875 767.925781 L 191.71875 764.382813 L 197.601563 764.382813 L 197.601563 766.257813 C 197.601563 770.921875 197.277344 774.191406 196.621094 776.0625 C 195.96875 777.9375 194.976563 779.289063 193.648438 780.117188 C 192.324219 780.945313 190.679688 781.363281 188.71875 781.363281 C 186.757813 781.363281 185.183594 781.117188 184.003906 780.613281 C 182.820313 780.117188 181.886719 779.460938 181.195313 778.640625 C 180.5 777.820313 179.890625 776.511719 179.363281 774.71875 C 178.835938 772.921875 178.574219 770.03125 178.574219 766.050781 "/>
<path style=" stroke:none;fill-rule:nonzero;fill:rgb(0%,0%,0%);fill-opacity:1;" d="M 218.886719 736.394531 C 218.960938 736.394531 219 737.664063 219 740.203125 L 218.972656 741.492188 C 215.460938 741.492188 212.941406 742.710938 211.417969 745.152344 L 211.417969 780.835938 L 205.390625 780.835938 L 205.390625 736.925781 L 211.417969 736.925781 L 211.417969 741.8125 C 211.925781 740.09375 212.820313 738.761719 214.097656 737.816406 C 215.378906 736.871094 216.972656 736.394531 218.886719 736.394531 "/>
<path style=" stroke:none;fill-rule:nonzero;fill:rgb(0%,0%,0%);fill-opacity:1;" d="M 237.0625 756.625 C 234.605469 757.738281 232.964844 758.597656 232.144531 759.203125 C 231.328125 759.808594 230.707031 760.515625 230.289063 761.324219 C 229.867188 762.136719 229.660156 763.46875 229.660156 765.320313 L 229.660156 769.390625 C 229.660156 771.945313 229.882813 773.746094 230.332031 774.789063 C 230.78125 775.835938 231.550781 776.359375 232.644531 776.359375 C 233.738281 776.359375 234.675781 776.039063 235.453125 775.40625 C 236.234375 774.773438 236.769531 774.082031 237.0625 773.34375 Z M 224.15625 749.628906 C 224.15625 744.320313 224.984375 740.785156 226.644531 739.03125 C 228.300781 737.277344 230.664063 736.394531 233.726563 736.394531 C 236.789063 736.394531 239.011719 737.140625 240.386719 738.621094 C 241.765625 740.105469 242.605469 742.484375 242.917969 745.761719 C 243.058594 747.171875 243.125 748.898438 243.125 750.945313 L 243.125 780.835938 L 237.09375 780.835938 L 237.09375 777.03125 C 236.78125 778.085938 236.097656 779.046875 235.046875 779.914063 C 233.992188 780.785156 232.683594 781.214844 231.121094 781.214844 C 226.144531 781.214844 223.636719 777.332031 223.597656 769.5625 L 223.597656 765.292969 C 223.597656 762.773438 224.285156 760.621094 225.664063 758.835938 C 227.039063 757.050781 230.839844 755.015625 237.0625 752.734375 L 237.0625 749.335938 C 237.0625 745.566406 236.789063 743.304688 236.246094 742.542969 C 235.699219 741.78125 234.769531 741.40625 233.449219 741.40625 C 232.132813 741.40625 231.25 741.976563 230.800781 743.132813 C 230.351563 744.28125 230.128906 746.359375 230.128906 749.363281 L 230.128906 750.886719 L 224.15625 750.886719 "/>
<path style=" stroke:none;fill-rule:nonzero;fill:rgb(0%,0%,0%);fill-opacity:1;" d="M 251.351563 780.835938 L 257.351563 780.835938 L 257.351563 728.753906 L 251.351563 728.753906 Z M 251.351563 780.835938 "/>
<path style=" stroke:none;fill-rule:nonzero;fill:rgb(0%,0%,0%);fill-opacity:1;" d="M 294.648438 729.3125 L 300.679688 729.3125 L 300.679688 767.601563 C 300.679688 772.421875 299.921875 775.9375 298.410156 778.140625 C 296.898438 780.347656 294.277344 781.449219 290.550781 781.449219 C 286.820313 781.449219 284.1875 780.347656 282.644531 778.140625 C 281.101563 775.9375 280.332031 772.421875 280.332031 767.601563 L 280.332031 729.3125 L 286.390625 729.3125 L 286.390625 767.457031 C 286.390625 770.890625 286.53125 772.949219 286.816406 773.617188 C 287.097656 774.292969 287.398438 774.824219 287.710938 775.214844 C 288.257813 775.957031 289.203125 776.328125 290.550781 776.328125 C 291.894531 776.328125 292.890625 775.917969 293.535156 775.097656 C 294.179688 774.277344 294.523438 773.058594 294.574219 771.441406 C 294.621094 769.820313 294.648438 768.5 294.648438 767.488281 "/>
<path style=" stroke:none;fill-rule:nonzero;fill:rgb(0%,0%,0%);fill-opacity:1;" d="M 322.398438 736.394531 C 322.476563 736.394531 322.515625 737.664063 322.515625 740.203125 L 322.484375 741.492188 C 318.972656 741.492188 316.457031 742.710938 314.933594 745.152344 L 314.933594 780.835938 L 308.902344 780.835938 L 308.902344 736.925781 L 314.933594 736.925781 L 314.933594 741.8125 C 315.441406 740.09375 316.335938 738.761719 317.613281 737.816406 C 318.890625 736.871094 320.484375 736.394531 322.398438 736.394531 "/>
<path style=" stroke:none;fill-rule:nonzero;fill:rgb(0%,0%,0%);fill-opacity:1;" d="M 340.84375 750.097656 C 340.84375 747.015625 340.582031 744.796875 340.066406 743.453125 C 339.546875 742.105469 338.554688 741.433594 337.078125 741.433594 C 335.605469 741.433594 334.609375 742.109375 334.09375 743.464844 C 333.578125 744.824219 333.316406 747.085938 333.316406 750.242188 L 333.316406 767.984375 C 333.316406 772.277344 333.882813 774.875 335.015625 775.773438 C 335.484375 776.140625 336.148438 776.328125 337.007813 776.328125 C 337.863281 776.328125 338.566406 776.09375 339.113281 775.625 C 340.265625 774.648438 340.84375 772.015625 340.84375 767.722656 Z M 340.8125 728.753906 L 346.84375 728.753906 L 346.84375 780.835938 L 340.8125 780.835938 L 340.8125 777.148438 C 339.71875 779.859375 337.699219 781.214844 334.753906 781.214844 C 330.714844 781.214844 328.339844 778.554688 327.640625 773.222656 C 327.402344 771.449219 327.289063 769.300781 327.289063 766.785156 L 327.289063 750.183594 C 327.289063 744.894531 328.144531 741.160156 329.863281 738.976563 C 331.230469 737.253906 333.164063 736.394531 335.660156 736.394531 C 336.753906 736.394531 337.761719 736.71875 338.691406 737.363281 C 339.617188 738.007813 340.324219 738.835938 340.8125 739.851563 "/>
<path style=" stroke:none;fill-rule:nonzero;fill:rgb(0%,0%,0%);fill-opacity:1;" d="M 369.148438 736.925781 L 375.179688 736.925781 L 375.179688 780.835938 L 369.148438 780.835938 L 369.148438 776.359375 C 368.683594 777.839844 367.878906 779.054688 366.734375 780 C 365.59375 780.945313 364.0625 781.421875 362.140625 781.421875 C 360.21875 781.421875 358.566406 780.625 357.191406 779.035156 C 355.816406 777.445313 355.128906 775.003906 355.128906 771.703125 L 355.128906 736.925781 L 361.128906 736.925781 L 361.128906 771.027344 C 361.128906 774.480469 362.386719 776.207031 364.90625 776.207031 C 366.3125 776.207031 367.371094 775.722656 368.082031 774.746094 C 368.792969 773.773438 369.148438 772.484375 369.148438 770.882813 "/>
<path style=" stroke:none;fill-rule:nonzero;fill:rgb(0%,0%,0%);fill-opacity:1;" d="M 412.417969 729.3125 L 418.449219 729.3125 L 418.449219 767.601563 C 418.449219 772.421875 417.691406 775.9375 416.179688 778.140625 C 414.667969 780.347656 412.046875 781.449219 408.320313 781.449219 C 404.59375 781.449219 401.957031 780.347656 400.414063 778.140625 C 398.875 775.9375 398.105469 772.421875 398.105469 767.601563 L 398.105469 729.3125 L 404.164063 729.3125 L 404.164063 767.457031 C 404.164063 770.890625 404.304688 772.949219 404.585938 773.617188 C 404.871094 774.292969 405.167969 774.824219 405.480469 775.214844 C 406.027344 775.957031 406.972656 776.328125 408.320313 776.328125 C 409.667969 776.328125 410.660156 775.917969 411.308594 775.097656 C 411.949219 774.277344 412.296875 773.058594 412.347656 771.441406 C 412.394531 769.820313 412.417969 768.5 412.417969 767.488281 "/>
<path style=" stroke:none;fill-rule:nonzero;fill:rgb(0%,0%,0%);fill-opacity:1;" d="M 432.675781 741.578125 C 433.066406 740.152344 433.921875 738.929688 435.238281 737.90625 C 436.554688 736.882813 438.195313 736.367188 440.15625 736.367188 C 442.117188 736.367188 443.707031 737.160156 444.925781 738.753906 C 446.148438 740.34375 446.757813 742.703125 446.757813 745.824219 L 446.757813 780.835938 L 440.757813 780.835938 L 440.757813 745.855469 C 440.757813 744.371094 440.414063 743.257813 439.730469 742.515625 C 439.046875 741.773438 438.101563 741.40625 436.890625 741.40625 C 435.683594 741.40625 434.675781 741.820313 433.875 742.664063 C 433.074219 743.5 432.675781 744.761719 432.675781 746.4375 L 432.675781 780.835938 L 426.675781 780.835938 L 426.675781 736.925781 L 432.675781 736.925781 "/>
<path style=" stroke:none;fill-rule:nonzero;fill:rgb(0%,0%,0%);fill-opacity:1;" d="M 455.15625 736.925781 L 461.160156 736.925781 L 461.160156 780.835938 L 455.15625 780.835938 Z M 455.15625 727.378906 L 461.191406 727.378906 L 461.191406 732.886719 L 455.15625 732.886719 Z M 455.15625 727.378906 "/>
<path style=" stroke:none;fill-rule:nonzero;fill:rgb(0%,0%,0%);fill-opacity:1;" d="M 480.746094 736.925781 L 486.308594 736.925781 L 480.011719 780.835938 L 472.960938 780.835938 L 466.722656 736.925781 L 472.3125 736.925781 L 475.476563 761.660156 L 476.5 771.46875 L 477.058594 771.46875 L 477.90625 761.632813 "/>
<path style=" stroke:none;fill-rule:nonzero;fill:rgb(0%,0%,0%);fill-opacity:1;" d="M 504.308594 749.421875 C 504.308594 746.300781 504.199219 744.417969 503.972656 743.773438 C 503.75 743.132813 503.464844 742.566406 503.109375 742.074219 C 502.757813 741.585938 502.125 741.34375 501.207031 741.34375 C 499.453125 741.34375 498.339844 742.078125 497.871094 743.554688 C 497.402344 745.027344 497.167969 747.054688 497.167969 749.628906 L 497.167969 755.015625 L 504.308594 755.015625 Z M 491.167969 750.535156 C 491.167969 744.992188 492.164063 741.140625 494.152344 738.976563 C 495.714844 737.257813 498.015625 736.394531 501.0625 736.394531 C 505.46875 736.394531 508.242188 738.300781 509.375 742.105469 C 510 744.253906 510.3125 747.152344 510.3125 750.800781 L 510.3125 759.085938 L 497.195313 759.085938 L 497.195313 767.835938 C 497.195313 771.644531 497.496094 774.015625 498.105469 774.949219 C 498.710938 775.890625 499.664063 776.359375 500.976563 776.359375 C 502.28125 776.359375 503.15625 775.808594 503.59375 774.71875 C 504.03125 773.625 504.265625 772.441406 504.28125 771.160156 C 504.300781 769.886719 504.308594 768.804688 504.308594 767.925781 L 504.308594 764.382813 L 510.195313 764.382813 L 510.195313 766.257813 C 510.195313 770.921875 509.867188 774.191406 509.214844 776.0625 C 508.558594 777.9375 507.570313 779.289063 506.242188 780.117188 C 504.914063 780.945313 503.269531 781.363281 501.308594 781.363281 C 499.347656 781.363281 497.777344 781.117188 496.59375 780.613281 C 495.417969 780.117188 494.480469 779.460938 493.785156 778.640625 C 493.09375 777.820313 492.484375 776.511719 491.957031 774.71875 C 491.429688 772.921875 491.167969 770.03125 491.167969 766.050781 "/>
<path style=" stroke:none;fill-rule:nonzero;fill:rgb(0%,0%,0%);fill-opacity:1;" d="M 531.480469 736.394531 C 531.554688 736.394531 531.59375 737.664063 531.59375 740.203125 L 531.5625 741.492188 C 528.054688 741.492188 525.539063 742.710938 524.011719 745.152344 L 524.011719 780.835938 L 517.980469 780.835938 L 517.980469 736.925781 L 524.011719 736.925781 L 524.011719 741.8125 C 524.519531 740.09375 525.410156 738.761719 526.691406 737.816406 C 527.972656 736.871094 529.566406 736.394531 531.480469 736.394531 "/>
<path style=" stroke:none;fill-rule:nonzero;fill:rgb(0%,0%,0%);fill-opacity:1;" d="M 554.546875 770.765625 C 554.527344 777.867188 551.394531 781.421875 545.148438 781.421875 C 541.988281 781.421875 539.617188 780.417969 538.035156 778.40625 C 536.453125 776.398438 535.664063 773.167969 535.664063 768.71875 L 535.664063 765.40625 L 541.488281 765.40625 L 541.488281 768.6875 C 541.488281 773.761719 542.640625 776.296875 544.945313 776.296875 C 546.214844 776.296875 547.125 775.890625 547.679688 775.070313 C 548.238281 774.246094 548.515625 772.824219 548.515625 770.792969 C 548.515625 767.613281 547.050781 764.589844 544.121094 761.71875 C 543.910156 761.507813 543.402344 761.019531 542.601563 760.269531 C 541.800781 759.519531 541.273438 759.015625 541.023438 758.761719 C 537.214844 755.132813 535.3125 751.121094 535.3125 746.730469 C 535.3125 743.257813 536.132813 740.667969 537.773438 738.957031 C 539.410156 737.25 541.742188 736.394531 544.769531 736.394531 C 546.816406 736.394531 548.484375 736.816406 549.773438 737.65625 C 552.46875 739.410156 553.816406 743.5625 553.816406 750.097656 L 553.816406 752.203125 L 548.105469 752.203125 L 548.105469 749.160156 C 548.105469 746.605469 547.859375 744.695313 547.359375 743.4375 C 546.863281 742.175781 546.007813 741.546875 544.796875 741.546875 C 543.589844 741.546875 542.683594 741.933594 542.074219 742.691406 C 541.46875 743.453125 541.164063 744.738281 541.164063 746.554688 C 541.164063 749.40625 542.503906 752.15625 545.179688 754.808594 L 548.339844 757.765625 C 552.476563 761.730469 554.546875 766.066406 554.546875 770.765625 "/>
<path style=" stroke:none;fill-rule:nonzero;fill:rgb(0%,0%,0%);fill-opacity:1;" d="M 560.691406 736.925781 L 566.695313 736.925781 L 566.695313 780.835938 L 560.691406 780.835938 Z M 560.691406 727.378906 L 566.722656 727.378906 L 566.722656 732.886719 L 560.691406 732.886719 Z M 560.691406 727.378906 "/>
<path style=" stroke:none;fill-rule:nonzero;fill:rgb(0%,0%,0%);fill-opacity:1;" d="M 576.386719 729.3125 L 582.386719 729.3125 L 582.386719 737.277344 L 587.128906 737.277344 L 587.128906 741.726563 L 582.386719 741.726563 L 582.386719 773.78125 C 582.386719 774.910156 582.648438 775.621094 583.175781 775.902344 C 583.703125 776.1875 585.039063 776.328125 587.1875 776.328125 L 587.1875 781.097656 L 583.0625 781.097656 C 580.289063 781.097656 578.480469 780.59375 577.644531 779.589844 C 576.804688 778.585938 576.386719 776.828125 576.386719 774.308594 L 576.386719 741.726563 L 572.371094 741.726563 L 572.371094 737.277344 L 576.386719 737.277344 "/>
<path style=" stroke:none;fill-rule:nonzero;fill:rgb(0%,0%,0%);fill-opacity:1;" d="M 605.277344 736.925781 L 611.074219 736.925781 L 603.785156 781.683594 C 603.433594 784.125 602.984375 785.714844 602.4375 786.457031 C 601.894531 787.199219 601.289063 787.667969 600.625 787.875 C 599.960938 788.082031 599.089844 788.183594 598.019531 788.183594 L 592.132813 788.183594 L 592.132813 783.648438 L 594.214844 783.648438 C 596.261719 783.648438 597.394531 783.410156 597.605469 782.945313 C 597.785156 782.726563 597.871094 782.3125 597.871094 781.683594 C 597.871094 781.058594 597.792969 780.261719 597.636719 779.285156 L 590.46875 736.925781 L 596.292969 736.925781 L 599.453125 759.757813 L 600.742188 771.644531 L 601.265625 771.644531 L 602.410156 759.757813 "/>
<path style=" stroke:none;fill-rule:nonzero;fill:rgb(0%,0%,0%);fill-opacity:1;" d="M 19.539063 821.511719 C 19.539063 817.335938 18.945313 814.800781 17.753906 813.90625 C 17.265625 813.53125 16.632813 813.347656 15.851563 813.347656 C 14.269531 813.347656 13.25 814.0625 12.792969 815.484375 C 12.332031 816.910156 12.105469 818.917969 12.105469 821.511719 L 12.105469 839.925781 C 12.105469 844.242188 12.710938 846.847656 13.917969 847.746094 C 14.40625 848.117188 15.011719 848.300781 15.734375 848.300781 L 15.851563 848.300781 C 17.394531 848.300781 18.394531 847.574219 18.851563 846.121094 C 19.3125 844.667969 19.539063 842.601563 19.539063 839.925781 Z M 6.074219 822.714844 C 6.074219 815.589844 7.714844 811.152344 10.992188 809.394531 C 12.320313 808.691406 13.859375 808.34375 15.617188 808.34375 C 20.203125 808.34375 23.132813 810.183594 24.398438 813.871094 C 25.179688 816.199219 25.570313 819.144531 25.570313 822.714844 L 25.570313 838.261719 C 25.570313 844.425781 24.742188 848.476563 23.082031 850.410156 C 21.421875 852.34375 19.023438 853.308594 15.882813 853.308594 C 11.292969 853.308594 8.375 851.355469 7.128906 847.453125 C 6.425781 845.207031 6.074219 842.144531 6.074219 838.261719 "/>
<path style=" stroke:none;fill-rule:nonzero;fill:rgb(0%,0%,0%);fill-opacity:1;" d="M 35.054688 808.429688 C 35.054688 803.140625 37.320313 800.496094 41.847656 800.496094 C 43.527344 800.496094 44.980469 800.703125 46.210938 801.109375 L 46.210938 805.296875 C 45.429688 805.179688 44.578125 805.121094 43.660156 805.121094 C 42.742188 805.121094 42.082031 805.367188 41.671875 805.867188 C 41.261719 806.363281 41.054688 807.140625 41.054688 808.195313 L 41.054688 810.566406 L 46.210938 810.566406 L 46.210938 814.988281 L 41.054688 814.988281 L 41.054688 852.78125 L 35.054688 852.78125 L 35.054688 814.988281 L 31.28125 814.988281 L 31.28125 810.566406 L 35.054688 810.566406 "/>
<path style=" stroke:none;fill-rule:nonzero;fill:rgb(0%,0%,0%);fill-opacity:1;" d="M 71.882813 838.027344 L 79.785156 838.027344 L 75.71875 810.800781 L 75.628906 810.800781 Z M 71.910156 801.257813 L 79.199219 801.257813 L 87.71875 852.78125 L 82.011719 852.78125 L 80.546875 842.945313 L 71.210938 842.945313 L 69.863281 852.78125 L 64.09375 852.78125 "/>
<path style=" stroke:none;fill-rule:nonzero;fill:rgb(0%,0%,0%);fill-opacity:1;" d="M 107.453125 808.34375 C 107.53125 808.34375 107.570313 809.613281 107.570313 812.144531 L 107.539063 813.433594 C 104.027344 813.433594 101.511719 814.65625 99.988281 817.09375 L 99.988281 852.78125 L 93.957031 852.78125 L 93.957031 808.867188 L 99.988281 808.867188 L 99.988281 813.757813 C 100.496094 812.039063 101.386719 810.707031 102.664063 809.761719 C 103.945313 808.816406 105.539063 808.34375 107.453125 808.34375 "/>
<path style=" stroke:none;fill-rule:nonzero;fill:rgb(0%,0%,0%);fill-opacity:1;" d="M 114.066406 801.257813 L 120.070313 801.257813 L 120.070313 809.21875 L 124.8125 809.21875 L 124.8125 813.667969 L 120.070313 813.667969 L 120.070313 845.726563 C 120.070313 846.859375 120.332031 847.566406 120.859375 847.847656 C 121.386719 848.132813 122.722656 848.273438 124.871094 848.273438 L 124.871094 853.042969 L 120.742188 853.042969 C 117.972656 853.042969 116.164063 852.542969 115.328125 851.535156 C 114.488281 850.53125 114.066406 848.769531 114.066406 846.25 L 114.066406 813.667969 L 110.058594 813.667969 L 110.058594 809.21875 L 114.066406 809.21875 "/>
<path style=" stroke:none;fill-rule:nonzero;fill:rgb(0%,0%,0%);fill-opacity:1;" d="M 148.4375 842.710938 C 148.414063 849.816406 145.285156 853.367188 139.039063 853.367188 C 135.875 853.367188 133.503906 852.359375 131.925781 850.347656 C 130.34375 848.339844 129.554688 845.109375 129.554688 840.660156 L 129.554688 837.355469 L 135.378906 837.355469 L 135.378906 840.632813 C 135.378906 845.707031 136.53125 848.242188 138.835938 848.242188 C 140.101563 848.242188 141.015625 847.835938 141.570313 847.011719 C 142.128906 846.195313 142.40625 844.773438 142.40625 842.742188 C 142.40625 839.558594 140.941406 836.53125 138.015625 833.664063 C 137.796875 833.449219 137.289063 832.96875 136.492188 832.214844 C 135.691406 831.464844 135.164063 830.960938 134.910156 830.710938 C 131.105469 827.078125 129.203125 823.066406 129.203125 818.675781 C 129.203125 815.203125 130.019531 812.609375 131.660156 810.902344 C 133.300781 809.195313 135.632813 808.34375 138.660156 808.34375 C 140.707031 808.34375 142.375 808.761719 143.664063 809.601563 C 146.355469 811.355469 147.703125 815.503906 147.703125 822.042969 L 147.703125 824.148438 L 141.996094 824.148438 L 141.996094 821.105469 C 141.996094 818.550781 141.746094 816.640625 141.246094 815.382813 C 140.75 814.125 139.894531 813.496094 138.6875 813.496094 C 137.476563 813.496094 136.570313 813.871094 135.964844 814.632813 C 135.359375 815.398438 135.058594 816.6875 135.058594 818.5 C 135.058594 821.347656 136.394531 824.101563 139.066406 826.757813 L 142.230469 829.714844 C 146.367188 833.671875 148.4375 838.007813 148.4375 842.710938 "/>
<g clip-path="url(#clip2)" clip-rule="nonzero">
<path style=" stroke:none;fill-rule:nonzero;fill:rgb(0%,0%,0%);fill-opacity:1;" d="M 153.675781 845.902344 L 161.230469 845.902344 L 161.230469 852.515625 L 158.273438 862.851563 L 155.171875 862.851563 L 157.308594 852.78125 L 153.675781 852.78125 "/>
</g>
<path style=" stroke:none;fill-rule:nonzero;fill:rgb(0%,0%,0%);fill-opacity:1;" d="M 182.070313 817.214844 C 181.71875 815.984375 181.546875 814.507813 181.546875 812.792969 C 181.546875 809.0625 182.234375 806.101563 183.609375 803.90625 C 184.984375 801.707031 187.613281 800.609375 191.496094 800.609375 C 196.496094 800.609375 199.441406 803.011719 200.339844 807.8125 C 200.730469 809.882813 200.925781 812.488281 200.925781 815.632813 L 200.925781 818.675781 L 195.128906 818.675781 L 195.128906 815.222656 C 195.128906 811.941406 194.964844 809.738281 194.628906 808.605469 C 194.300781 807.472656 193.886719 806.722656 193.398438 806.351563 C 192.914063 805.980469 192.277344 805.792969 191.496094 805.792969 C 190.035156 805.792969 188.980469 806.328125 188.339844 807.40625 C 187.691406 808.480469 187.371094 810.070313 187.371094 812.171875 C 187.371094 814.285156 187.664063 815.824219 188.25 816.800781 C 188.835938 817.777344 189.554688 818.710938 190.414063 819.597656 C 191.273438 820.484375 191.753906 820.988281 191.851563 821.109375 L 195.363281 824.824219 C 199.578125 829.234375 201.6875 834.171875 201.6875 839.636719 C 201.6875 844.085938 200.996094 847.488281 199.621094 849.839844 C 198.246094 852.1875 195.628906 853.367188 191.761719 853.367188 C 187.097656 853.367188 184.140625 851.316406 182.890625 847.21875 C 182.171875 844.914063 181.808594 841.898438 181.808594 838.171875 L 181.808594 832.871094 L 187.691406 832.871094 L 187.691406 838.113281 C 187.691406 841.878906 187.964844 844.5 188.511719 845.972656 C 189.058594 847.445313 190.074219 848.183594 191.554688 848.183594 C 193.039063 848.183594 194.0625 847.835938 194.628906 847.144531 C 195.195313 846.453125 195.523438 845.394531 195.609375 843.96875 C 195.699219 842.542969 195.742188 840.945313 195.742188 839.167969 C 195.742188 835.59375 194.171875 832.242188 191.03125 829.09375 L 187.664063 825.730469 C 184.660156 822.644531 182.796875 819.808594 182.070313 817.214844 "/>
<path style=" stroke:none;fill-rule:nonzero;fill:rgb(0%,0%,0%);fill-opacity:1;" d="M 207.597656 823.273438 C 207.597656 819.464844 207.886719 816.679688 208.464844 814.914063 C 209.039063 813.148438 209.6875 811.855469 210.410156 811.035156 C 211.988281 809.238281 214.3125 808.34375 217.378906 808.34375 C 220.441406 808.34375 222.648438 809.101563 223.992188 810.625 C 225.320313 812.144531 226.140625 814.410156 226.453125 817.417969 C 226.570313 818.707031 226.636719 820.238281 226.65625 822.011719 L 226.65625 825.058594 L 220.742188 825.058594 L 220.742188 821.191406 C 220.742188 818.460938 220.636719 816.675781 220.421875 815.835938 C 219.640625 814.585938 218.703125 813.804688 217.609375 813.496094 C 215.699219 813.496094 214.515625 814.449219 214.070313 816.363281 C 213.777344 817.574219 213.628906 819.242188 213.628906 821.371094 L 213.628906 840.046875 C 213.628906 843.050781 213.859375 845.15625 214.316406 846.355469 C 214.777344 847.554688 215.660156 848.15625 216.964844 848.15625 C 218.273438 848.15625 219.230469 847.730469 219.835938 846.878906 C 220.441406 846.03125 220.742188 843.792969 220.742188 840.160156 L 220.742188 835.917969 L 226.65625 835.917969 L 226.65625 838.757813 C 226.65625 844.75 225.867188 848.671875 224.285156 850.523438 C 222.703125 852.378906 220.296875 853.308594 217.054688 853.308594 C 211.941406 853.308594 208.945313 850.574219 208.066406 845.109375 C 207.753906 843.101563 207.597656 840.71875 207.597656 837.964844 "/>
<path style=" stroke:none;fill-rule:nonzero;fill:rgb(0%,0%,0%);fill-opacity:1;" d="M 234.121094 808.867188 L 240.121094 808.867188 L 240.121094 852.78125 L 234.121094 852.78125 Z M 234.121094 799.324219 L 240.152344 799.324219 L 240.152344 804.828125 L 234.121094 804.828125 Z M 234.121094 799.324219 "/>
<path style=" stroke:none;fill-rule:nonzero;fill:rgb(0%,0%,0%);fill-opacity:1;" d="M 261.230469 821.371094 C 261.230469 818.246094 261.117188 816.363281 260.894531 815.71875 C 260.667969 815.074219 260.382813 814.507813 260.03125 814.019531 C 259.679688 813.53125 259.046875 813.289063 258.128906 813.289063 C 256.371094 813.289063 255.257813 814.027344 254.789063 815.5 C 254.320313 816.972656 254.089844 818.996094 254.089844 821.574219 L 254.089844 826.960938 L 261.230469 826.960938 Z M 248.085938 822.480469 C 248.085938 816.9375 249.082031 813.085938 251.074219 810.914063 C 252.632813 809.203125 254.9375 808.34375 257.980469 808.34375 C 262.390625 808.34375 265.164063 810.242188 266.296875 814.050781 C 266.917969 816.195313 267.230469 819.09375 267.230469 822.742188 L 267.230469 831.027344 L 254.117188 831.027344 L 254.117188 839.785156 C 254.117188 843.585938 254.421875 845.960938 255.023438 846.894531 C 255.628906 847.835938 256.585938 848.300781 257.894531 848.300781 C 259.199219 848.300781 260.074219 847.757813 260.511719 846.660156 C 260.953125 845.566406 261.183594 844.382813 261.199219 843.105469 C 261.222656 841.828125 261.230469 840.746094 261.230469 839.871094 L 261.230469 836.328125 L 267.117188 836.328125 L 267.117188 838.199219 C 267.117188 842.867188 266.789063 846.136719 266.132813 848.007813 C 265.480469 849.882813 264.488281 851.234375 263.164063 852.0625 C 261.835938 852.890625 260.191406 853.308594 258.230469 853.308594 C 256.269531 853.308594 254.695313 853.058594 253.515625 852.558594 C 252.335938 852.0625 251.398438 851.402344 250.707031 850.585938 C 250.015625 849.765625 249.402344 848.460938 248.878906 846.660156 C 248.351563 844.867188 248.085938 841.976563 248.085938 837.996094 "/>
<path style=" stroke:none;fill-rule:nonzero;fill:rgb(0%,0%,0%);fill-opacity:1;" d="M 280.902344 813.523438 C 281.292969 812.097656 282.148438 810.875 283.464844 809.847656 C 284.78125 808.824219 286.421875 808.316406 288.382813 808.316406 C 290.34375 808.316406 291.933594 809.109375 293.152344 810.699219 C 294.371094 812.289063 294.984375 814.644531 294.984375 817.765625 L 294.984375 852.78125 L 288.980469 852.78125 L 288.980469 817.796875 C 288.980469 816.316406 288.640625 815.203125 287.957031 814.460938 C 287.273438 813.71875 286.328125 813.347656 285.117188 813.347656 C 283.90625 813.347656 282.902344 813.765625 282.101563 814.605469 C 281.300781 815.445313 280.902344 816.703125 280.902344 818.382813 L 280.902344 852.78125 L 274.902344 852.78125 L 274.902344 808.867188 L 280.902344 808.867188 "/>
<path style=" stroke:none;fill-rule:nonzero;fill:rgb(0%,0%,0%);fill-opacity:1;" d="M 302.625 823.273438 C 302.625 819.464844 302.910156 816.679688 303.488281 814.914063 C 304.0625 813.148438 304.714844 811.855469 305.433594 811.035156 C 307.015625 809.238281 309.339844 808.34375 312.402344 808.34375 C 315.464844 808.34375 317.671875 809.101563 319.019531 810.625 C 320.34375 812.144531 321.164063 814.410156 321.476563 817.417969 C 321.59375 818.707031 321.660156 820.238281 321.683594 822.011719 L 321.683594 825.058594 L 315.769531 825.058594 L 315.769531 821.191406 C 315.769531 818.460938 315.660156 816.675781 315.445313 815.835938 C 314.664063 814.585938 313.726563 813.804688 312.636719 813.496094 C 310.722656 813.496094 309.542969 814.449219 309.09375 816.363281 C 308.800781 817.574219 308.652344 819.242188 308.652344 821.371094 L 308.652344 840.046875 C 308.652344 843.050781 308.882813 845.15625 309.34375 846.355469 C 309.800781 847.554688 310.683594 848.15625 311.992188 848.15625 C 313.300781 848.15625 314.257813 847.730469 314.859375 846.878906 C 315.464844 846.03125 315.769531 843.792969 315.769531 840.160156 L 315.769531 835.917969 L 321.683594 835.917969 L 321.683594 838.757813 C 321.683594 844.75 320.890625 848.671875 319.3125 850.523438 C 317.730469 852.378906 315.320313 853.308594 312.078125 853.308594 C 306.964844 853.308594 303.972656 850.574219 303.09375 845.109375 C 302.78125 843.101563 302.625 840.71875 302.625 837.964844 "/>
<path style=" stroke:none;fill-rule:nonzero;fill:rgb(0%,0%,0%);fill-opacity:1;" d="M 341.53125 821.371094 C 341.53125 818.246094 341.417969 816.363281 341.191406 815.71875 C 340.96875 815.074219 340.679688 814.507813 340.328125 814.019531 C 339.980469 813.53125 339.34375 813.289063 338.425781 813.289063 C 336.671875 813.289063 335.558594 814.027344 335.089844 815.5 C 334.621094 816.972656 334.386719 818.996094 334.386719 821.574219 L 334.386719 826.960938 L 341.53125 826.960938 Z M 328.386719 822.480469 C 328.386719 816.9375 329.382813 813.085938 331.371094 810.914063 C 332.933594 809.203125 335.234375 808.34375 338.28125 808.34375 C 342.691406 808.34375 345.464844 810.242188 346.59375 814.050781 C 347.21875 816.195313 347.53125 819.09375 347.53125 822.742188 L 347.53125 831.027344 L 334.414063 831.027344 L 334.414063 839.785156 C 334.414063 843.585938 334.71875 845.960938 335.324219 846.894531 C 335.929688 847.835938 336.882813 848.300781 338.191406 848.300781 C 339.5 848.300781 340.371094 847.757813 340.8125 846.660156 C 341.253906 845.566406 341.480469 844.382813 341.5 843.105469 C 341.519531 841.828125 341.53125 840.746094 341.53125 839.871094 L 341.53125 836.328125 L 347.414063 836.328125 L 347.414063 838.199219 C 347.414063 842.867188 347.089844 846.136719 346.433594 848.007813 C 345.777344 849.882813 344.789063 851.234375 343.460938 852.0625 C 342.132813 852.890625 340.488281 853.308594 338.527344 853.308594 C 336.566406 853.308594 334.996094 853.058594 333.816406 852.558594 C 332.632813 852.0625 331.699219 851.402344 331.007813 850.585938 C 330.3125 849.765625 329.703125 848.460938 329.175781 846.660156 C 328.648438 844.867188 328.386719 841.976563 328.386719 837.996094 "/>
<path style=" stroke:none;fill-rule:nonzero;fill:rgb(0%,0%,0%);fill-opacity:1;" d="M 382.777344 828.570313 C 380.316406 829.683594 378.679688 830.542969 377.859375 831.144531 C 377.039063 831.75 376.421875 832.460938 376.003906 833.269531 C 375.578125 834.078125 375.371094 835.410156 375.371094 837.265625 L 375.371094 841.335938 C 375.371094 843.890625 375.59375 845.691406 376.046875 846.734375 C 376.492188 847.78125 377.265625 848.300781 378.355469 848.300781 C 379.453125 848.300781 380.386719 847.984375 381.167969 847.351563 C 381.949219 846.714844 382.484375 846.03125 382.777344 845.285156 Z M 369.867188 821.574219 C 369.867188 816.261719 370.695313 812.734375 372.355469 810.976563 C 374.015625 809.21875 376.375 808.34375 379.441406 808.34375 C 382.503906 808.34375 384.722656 809.082031 386.101563 810.566406 C 387.476563 812.050781 388.320313 814.429688 388.632813 817.710938 C 388.769531 819.113281 388.839844 820.839844 388.839844 822.890625 L 388.839844 852.78125 L 382.808594 852.78125 L 382.808594 848.972656 C 382.496094 850.027344 381.8125 850.988281 380.757813 851.855469 C 379.703125 852.726563 378.394531 853.160156 376.835938 853.160156 C 371.855469 853.160156 369.351563 849.277344 369.3125 841.511719 L 369.3125 837.234375 C 369.3125 834.71875 370 832.566406 371.378906 830.78125 C 372.753906 828.992188 376.550781 826.960938 382.777344 824.675781 L 382.777344 821.28125 C 382.777344 817.515625 382.503906 815.25 381.957031 814.488281 C 381.410156 813.730469 380.480469 813.347656 379.164063 813.347656 C 377.84375 813.347656 376.964844 813.925781 376.511719 815.074219 C 376.0625 816.226563 375.839844 818.304688 375.839844 821.308594 L 375.839844 822.835938 L 369.867188 822.835938 "/>
<path style=" stroke:none;fill-rule:nonzero;fill:rgb(0%,0%,0%);fill-opacity:1;" d="M 403.035156 813.523438 C 403.425781 812.097656 404.28125 810.875 405.597656 809.847656 C 406.914063 808.824219 408.554688 808.316406 410.515625 808.316406 C 412.476563 808.316406 414.066406 809.109375 415.285156 810.699219 C 416.507813 812.289063 417.117188 814.644531 417.117188 817.765625 L 417.117188 852.78125 L 411.113281 852.78125 L 411.113281 817.796875 C 411.113281 816.316406 410.773438 815.203125 410.089844 814.460938 C 409.40625 813.71875 408.460938 813.347656 407.25 813.347656 C 406.042969 813.347656 405.035156 813.765625 404.234375 814.605469 C 403.433594 815.445313 403.035156 816.703125 403.035156 818.382813 L 403.035156 852.78125 L 397.035156 852.78125 L 397.035156 808.867188 L 403.035156 808.867188 "/>
<path style=" stroke:none;fill-rule:nonzero;fill:rgb(0%,0%,0%);fill-opacity:1;" d="M 438.3125 822.042969 C 438.3125 818.957031 438.050781 816.742188 437.535156 815.394531 C 437.019531 814.050781 436.023438 813.375 434.550781 813.375 C 433.078125 813.375 432.078125 814.054688 431.5625 815.410156 C 431.046875 816.765625 430.789063 819.023438 430.789063 822.1875 L 430.789063 839.925781 C 430.789063 844.222656 431.355469 846.816406 432.488281 847.714844 C 432.953125 848.089844 433.617188 848.269531 434.476563 848.269531 C 435.335938 848.269531 436.039063 848.035156 436.585938 847.566406 C 437.738281 846.59375 438.3125 843.960938 438.3125 839.664063 Z M 438.28125 800.703125 L 444.3125 800.703125 L 444.3125 852.78125 L 438.28125 852.78125 L 438.28125 849.09375 C 437.1875 851.804688 435.171875 853.160156 432.222656 853.160156 C 428.183594 853.160156 425.8125 850.496094 425.109375 845.167969 C 424.875 843.394531 424.757813 841.246094 424.757813 838.726563 L 424.757813 822.132813 C 424.757813 816.839844 425.617188 813.105469 427.335938 810.914063 C 428.699219 809.199219 430.632813 808.34375 433.128906 808.34375 C 434.222656 808.34375 435.230469 808.664063 436.160156 809.308594 C 437.085938 809.949219 437.796875 810.78125 438.28125 811.796875 "/>
<path style=" stroke:none;fill-rule:nonzero;fill:rgb(0%,0%,0%);fill-opacity:1;" d="M 464.128906 801.257813 L 481.140625 801.257813 L 481.140625 806.292969 L 475.839844 806.292969 L 475.839844 852.78125 L 469.8125 852.78125 L 469.8125 806.292969 L 464.128906 806.292969 "/>
<path style=" stroke:none;fill-rule:nonzero;fill:rgb(0%,0%,0%);fill-opacity:1;" d="M 498.734375 821.371094 C 498.734375 818.246094 498.621094 816.363281 498.394531 815.71875 C 498.171875 815.074219 497.886719 814.507813 497.53125 814.019531 C 497.183594 813.53125 496.546875 813.289063 495.628906 813.289063 C 493.875 813.289063 492.761719 814.027344 492.296875 815.5 C 491.824219 816.972656 491.589844 818.996094 491.589844 821.574219 L 491.589844 826.960938 L 498.734375 826.960938 Z M 485.589844 822.480469 C 485.589844 816.9375 486.589844 813.085938 488.578125 810.914063 C 490.136719 809.203125 492.441406 808.34375 495.484375 808.34375 C 499.894531 808.34375 502.667969 810.242188 503.800781 814.050781 C 504.421875 816.195313 504.738281 819.09375 504.738281 822.742188 L 504.738281 831.027344 L 491.621094 831.027344 L 491.621094 839.785156 C 491.621094 843.585938 491.921875 845.960938 492.527344 846.894531 C 493.132813 847.835938 494.089844 848.300781 495.398438 848.300781 C 496.703125 848.300781 497.578125 847.757813 498.019531 846.660156 C 498.457031 845.566406 498.6875 844.382813 498.703125 843.105469 C 498.726563 841.828125 498.734375 840.746094 498.734375 839.871094 L 498.734375 836.328125 L 504.617188 836.328125 L 504.617188 838.199219 C 504.617188 842.867188 504.292969 846.136719 503.640625 848.007813 C 502.980469 849.882813 501.992188 851.234375 500.664063 852.0625 C 499.339844 852.890625 497.695313 853.308594 495.734375 853.308594 C 493.773438 853.308594 492.203125 853.058594 491.019531 852.558594 C 489.839844 852.0625 488.902344 851.402344 488.210938 850.585938 C 487.519531 849.765625 486.90625 848.460938 486.378906 846.660156 C 485.855469 844.867188 485.589844 841.976563 485.589844 837.996094 "/>
<path style=" stroke:none;fill-rule:nonzero;fill:rgb(0%,0%,0%);fill-opacity:1;" d="M 511.730469 823.273438 C 511.730469 819.464844 512.019531 816.679688 512.597656 814.914063 C 513.171875 813.148438 513.820313 811.855469 514.542969 811.035156 C 516.125 809.238281 518.445313 808.34375 521.511719 808.34375 C 524.574219 808.34375 526.777344 809.101563 528.128906 810.625 C 529.453125 812.144531 530.273438 814.410156 530.585938 817.417969 C 530.703125 818.707031 530.769531 820.238281 530.789063 822.011719 L 530.789063 825.058594 L 524.878906 825.058594 L 524.878906 821.191406 C 524.878906 818.460938 524.769531 816.675781 524.554688 815.835938 C 523.773438 814.585938 522.839844 813.804688 521.746094 813.496094 C 519.828125 813.496094 518.652344 814.449219 518.199219 816.363281 C 517.910156 817.574219 517.761719 819.242188 517.761719 821.371094 L 517.761719 840.046875 C 517.761719 843.050781 517.992188 845.15625 518.453125 846.355469 C 518.910156 847.554688 519.792969 848.15625 521.101563 848.15625 C 522.410156 848.15625 523.363281 847.730469 523.96875 846.878906 C 524.574219 846.03125 524.878906 843.792969 524.878906 840.160156 L 524.878906 835.917969 L 530.789063 835.917969 L 530.789063 838.757813 C 530.789063 844.75 529.996094 848.671875 528.417969 850.523438 C 526.839844 852.378906 524.429688 853.308594 521.1875 853.308594 C 516.074219 853.308594 513.078125 850.574219 512.203125 845.109375 C 511.886719 843.101563 511.730469 840.71875 511.730469 837.964844 "/>
<path style=" stroke:none;fill-rule:nonzero;fill:rgb(0%,0%,0%);fill-opacity:1;" d="M 538.167969 800.703125 L 544.167969 800.703125 L 544.167969 813.523438 C 544.578125 812.097656 545.425781 810.871094 546.714844 809.847656 C 548.003906 808.824219 549.628906 808.3125 551.589844 808.3125 C 553.550781 808.3125 555.144531 809.109375 556.375 810.699219 C 557.605469 812.289063 558.21875 814.644531 558.21875 817.765625 L 558.21875 852.78125 L 552.222656 852.78125 L 552.222656 818.265625 C 552.222656 815.085938 551.019531 813.496094 548.617188 813.496094 C 547.308594 813.496094 546.242188 813.960938 545.410156 814.886719 C 544.582031 815.8125 544.167969 817.183594 544.167969 818.996094 L 544.167969 852.78125 L 538.167969 852.78125 "/>
<path style=" stroke:none;fill-rule:nonzero;fill:rgb(0%,0%,0%);fill-opacity:1;" d="M 572.53125 813.523438 C 572.925781 812.097656 573.78125 810.875 575.097656 809.847656 C 576.414063 808.824219 578.050781 808.316406 580.011719 808.316406 C 581.976563 808.316406 583.566406 809.109375 584.785156 810.699219 C 586.007813 812.289063 586.617188 814.644531 586.617188 817.765625 L 586.617188 852.78125 L 580.613281 852.78125 L 580.613281 817.796875 C 580.613281 816.316406 580.269531 815.203125 579.589844 814.460938 C 578.902344 813.71875 577.960938 813.347656 576.746094 813.347656 C 575.542969 813.347656 574.535156 813.765625 573.734375 814.605469 C 572.933594 815.445313 572.53125 816.703125 572.53125 818.382813 L 572.53125 852.78125 L 566.535156 852.78125 L 566.535156 808.867188 L 572.53125 808.867188 "/>
<path style=" stroke:none;fill-rule:nonzero;fill:rgb(0%,0%,0%);fill-opacity:1;" d="M 607.722656 821.511719 C 607.722656 817.335938 607.128906 814.800781 605.941406 813.90625 C 605.449219 813.53125 604.816406 813.347656 604.035156 813.347656 C 602.453125 813.347656 601.433594 814.0625 600.976563 815.484375 C 600.519531 816.910156 600.289063 818.917969 600.289063 821.511719 L 600.289063 839.925781 C 600.289063 844.242188 600.894531 846.847656 602.101563 847.746094 C 602.589844 848.117188 603.199219 848.300781 603.917969 848.300781 L 604.035156 848.300781 C 605.578125 848.300781 606.578125 847.574219 607.035156 846.121094 C 607.496094 844.667969 607.722656 842.601563 607.722656 839.925781 Z M 594.257813 822.714844 C 594.257813 815.589844 595.898438 811.152344 599.175781 809.394531 C 600.503906 808.691406 602.046875 808.34375 603.800781 808.34375 C 608.386719 808.34375 611.316406 810.183594 612.585938 813.871094 C 613.363281 816.199219 613.753906 819.144531 613.753906 822.714844 L 613.753906 838.261719 C 613.753906 844.425781 612.925781 848.476563 611.265625 850.410156 C 609.609375 852.34375 607.207031 853.308594 604.0625 853.308594 C 599.476563 853.308594 596.5625 851.355469 595.3125 847.453125 C 594.609375 845.207031 594.257813 842.144531 594.257813 838.261719 "/>
<path style=" stroke:none;fill-rule:nonzero;fill:rgb(0%,0%,0%);fill-opacity:1;" d="M 621.714844 852.78125 L 627.714844 852.78125 L 627.714844 800.703125 L 621.714844 800.703125 Z M 621.714844 852.78125 "/>
<path style=" stroke:none;fill-rule:nonzero;fill:rgb(0%,0%,0%);fill-opacity:1;" d="M 649.148438 821.511719 C 649.148438 817.335938 648.554688 814.800781 647.363281 813.90625 C 646.875 813.53125 646.238281 813.347656 645.460938 813.347656 C 643.878906 813.347656 642.855469 814.0625 642.398438 815.484375 C 641.941406 816.910156 641.714844 818.917969 641.714844 821.511719 L 641.714844 839.925781 C 641.714844 844.242188 642.316406 846.847656 643.523438 847.746094 C 644.015625 848.117188 644.621094 848.300781 645.339844 848.300781 L 645.460938 848.300781 C 647 848.300781 648.003906 847.574219 648.460938 846.121094 C 648.917969 844.667969 649.148438 842.601563 649.148438 839.925781 Z M 635.683594 822.714844 C 635.683594 815.589844 637.320313 811.152344 640.601563 809.394531 C 641.925781 808.691406 643.46875 808.34375 645.222656 808.34375 C 649.8125 808.34375 652.738281 810.183594 654.007813 813.871094 C 654.785156 816.199219 655.179688 819.144531 655.179688 822.714844 L 655.179688 838.261719 C 655.179688 844.425781 654.347656 848.476563 652.691406 850.410156 C 651.03125 852.34375 648.628906 853.308594 645.488281 853.308594 C 640.902344 853.308594 637.984375 851.355469 636.734375 847.453125 C 636.03125 845.207031 635.683594 842.144531 635.683594 838.261719 "/>
<path style=" stroke:none;fill-rule:nonzero;fill:rgb(0%,0%,0%);fill-opacity:1;" d="M 675.875 821.511719 C 675.875 818.664063 675.613281 816.589844 675.097656 815.292969 C 674.582031 814 673.671875 813.347656 672.375 813.347656 C 671.074219 813.347656 670.164063 813.71875 669.636719 814.460938 C 669.109375 815.203125 668.773438 816.128906 668.628906 817.242188 C 668.480469 818.351563 668.40625 819.757813 668.40625 821.457031 L 668.40625 835.128906 C 668.40625 838.226563 668.691406 840.46875 669.257813 841.84375 C 669.824219 843.222656 670.886719 843.910156 672.449219 843.910156 C 673.269531 843.910156 673.910156 843.675781 674.382813 843.207031 C 675.355469 842.25 675.851563 839.539063 675.875 835.070313 Z M 670.515625 808.34375 C 673.269531 808.34375 675.054688 809.589844 675.875 812.089844 L 675.875 808.867188 L 681.875 808.867188 L 681.875 848.683594 C 681.875 853.910156 679.902344 857.261719 675.960938 858.726563 C 674.597656 859.230469 673.015625 859.484375 671.21875 859.484375 C 667.628906 859.484375 664.648438 858.546875 662.289063 856.671875 L 664.457031 852.578125 C 666.582031 854.019531 668.835938 854.742188 671.21875 854.742188 C 672.800781 854.742188 673.96875 854.242188 674.730469 853.25 C 675.492188 852.25 675.875 850.917969 675.875 849.238281 L 675.875 845.050781 C 675.347656 846.417969 674.613281 847.363281 673.679688 847.890625 C 672.703125 848.417969 671.488281 848.683594 670.046875 848.683594 C 667.121094 848.683594 665.109375 847.441406 664.015625 844.964844 C 662.925781 842.484375 662.378906 839.160156 662.378906 834.980469 L 662.378906 822.394531 C 662.378906 813.027344 665.089844 808.34375 670.515625 808.34375 "/>
<g clip-path="url(#clip3)" clip-rule="nonzero">
<path style=" stroke:none;fill-rule:nonzero;fill:rgb(0%,0%,0%);fill-opacity:1;" d="M 702.335938 808.867188 L 708.132813 808.867188 L 700.84375 853.628906 C 700.492188 856.066406 700.042969 857.65625 699.496094 858.398438 C 698.953125 859.140625 698.347656 859.617188 697.683594 859.820313 C 697.019531 860.023438 696.148438 860.128906 695.078125 860.128906 L 689.191406 860.128906 L 689.191406 855.589844 L 691.273438 855.589844 C 693.320313 855.589844 694.449219 855.355469 694.664063 854.886719 C 694.84375 854.671875 694.933594 854.253906 694.933594 853.628906 C 694.933594 853.007813 694.851563 852.207031 694.695313 851.226563 L 687.523438 808.867188 L 693.351563 808.867188 L 696.511719 831.703125 L 697.800781 843.585938 L 698.324219 843.585938 L 699.46875 831.703125 "/>
</g>
</g>
</svg>
